<svg width="24" height="24" viewBox="0 0 24 24" fill="none" xmlns="http://www.w3.org/2000/svg">
<g id="telegram (1) 3" clip-path="url(#clip0_1_194)">
<g id="Artboard">
<path id="Vector" fill-rule="evenodd" clip-rule="evenodd" d="M12 6.10352e-05C5.373 6.10352e-05 0 5.37306 0 12.0001C0 18.6271 5.373 24.0001 12 24.0001C18.627 24.0001 24 18.6271 24 12.0001C24 5.37306 18.627 6.10352e-05 12 6.10352e-05ZM17.562 8.16106C17.382 10.0581 16.6 14.6631 16.203 16.7881C16.035 17.6881 15.703 17.9891 15.383 18.0181C14.686 18.0821 14.157 17.5571 13.482 17.1151C12.426 16.4231 11.829 15.9921 10.804 15.3161C9.619 14.5351 10.387 14.1061 11.062 13.4051C11.239 13.2211 14.309 10.4281 14.369 10.1751C14.376 10.1431 14.384 10.0251 14.313 9.96306C14.242 9.90106 14.139 9.92206 14.065 9.93906C13.959 9.96306 12.272 11.0781 9.003 13.2841C8.524 13.6131 8.09 13.7731 7.701 13.7651C7.273 13.7561 6.449 13.5231 5.836 13.3231C5.085 13.0791 4.487 12.9491 4.539 12.5351C4.566 12.3191 4.863 12.0981 5.431 11.8721C8.929 10.3481 11.262 9.34306 12.429 8.85706C15.762 7.47106 16.454 7.23006 16.906 7.22206C17.472 7.21406 17.608 7.68106 17.562 8.16106Z" fill="#CFDEFF"/>
</g>
</g>
<defs>
<clipPath id="clip0_1_194">
<rect width="24" height="24" fill="white"/>
</clipPath>
</defs>
</svg>
