<svg width="55" height="36" viewBox="0 0 55 36" fill="none" xmlns="http://www.w3.org/2000/svg">
<g id="Graphic_Elements">
<g id="Group">
<path id="Vector" d="M23.6762 10.0511C22.764 9.21472 22.2059 8.05363 22.2059 6.7843C22.2059 4.22597 24.4704 2.14978 27.2607 2.14978C29.0207 2.14978 30.5768 2.97632 31.4783 4.23581C31.7144 4.45228 51.8261 27.1821 52.0193 27.4478C52.9315 28.2842 53.4895 29.4452 53.4895 30.7146C53.4895 33.2729 51.2251 35.3491 48.4348 35.3491C46.6748 35.3491 45.1186 34.5226 44.2171 33.2631C43.9703 33.0368 23.8587 10.3069 23.6762 10.0511Z" fill="#FFD43F"/>
<path id="Vector_2" d="M12.032 20.8355C11.1197 19.9991 10.5509 18.838 10.5509 17.5588C10.5509 15.0005 12.8154 12.9243 15.6057 12.9243C17.3657 12.9243 18.9219 13.7509 19.8233 15.0103C20.0702 15.2367 30.6304 27.1723 30.8128 27.4379C31.7251 28.2743 32.2939 29.4354 32.2939 30.7146C32.2939 33.2729 30.0294 35.3491 27.2391 35.3491C25.4791 35.3491 23.9229 34.5226 23.0215 33.2631C22.7854 33.0368 12.2251 21.1011 12.032 20.8355Z" fill="white"/>
<g id="Group_2">
<path id="Vector_3" d="M1.15345 7.83117C0.516391 5.33917 2.2033 2.8455 4.92125 2.26141C7.63921 1.67731 10.359 3.22397 10.996 5.71598C11.6331 8.20798 9.9462 10.7017 7.22824 11.2857C4.51028 11.8698 1.7905 10.3232 1.15345 7.83117Z" fill="white"/>
</g>
<g id="Group_3">
<path id="Vector_4" d="M46.5707 11.0854C43.9761 10.1407 42.7081 7.44639 43.7385 5.06752C44.7689 2.68865 47.7076 1.52605 50.3021 2.47079C52.8967 3.41553 54.1647 6.10985 53.1343 8.48872C52.1039 10.8676 49.1653 12.0302 46.5707 11.0854Z" fill="white"/>
</g>
</g>
</g>
</svg>
