<svg width="24" height="24" viewBox="0 0 24 24" fill="none" xmlns="http://www.w3.org/2000/svg">
<g id="instagram (2) 3" clip-path="url(#clip0_1_189)">
<g id="Group">
<path id="Vector" d="M12 2.16206C15.204 2.16206 15.584 2.17406 16.849 2.23206C18.157 2.29206 19.504 2.59006 20.457 3.54306C21.419 4.50506 21.708 5.83906 21.768 7.15106C21.826 8.41606 21.838 8.79606 21.838 12.0001C21.838 15.2041 21.826 15.5841 21.768 16.8491C21.709 18.1501 21.404 19.5101 20.457 20.4571C19.495 21.4191 18.162 21.7081 16.849 21.7681C15.584 21.8261 15.204 21.8381 12 21.8381C8.796 21.8381 8.416 21.8261 7.151 21.7681C5.86 21.7091 4.482 21.3971 3.543 20.4571C2.586 19.5001 2.292 18.1531 2.232 16.8491C2.174 15.5841 2.162 15.2041 2.162 12.0001C2.162 8.79606 2.174 8.41606 2.232 7.15106C2.291 5.85506 2.599 4.48706 3.543 3.54306C4.503 2.58306 5.842 2.29206 7.151 2.23206C8.416 2.17406 8.796 2.16206 12 2.16206ZM12 6.10352e-05C8.741 6.10352e-05 8.332 0.014061 7.052 0.072061C5.197 0.157061 3.355 0.673061 2.014 2.01406C0.668 3.36006 0.157 5.19806 0.072 7.05206C0.014 8.33206 0 8.74106 0 12.0001C0 15.2591 0.014 15.6681 0.072 16.9481C0.157 18.8011 0.675 20.6481 2.014 21.9861C3.359 23.3311 5.2 23.8431 7.052 23.9281C8.332 23.9861 8.741 24.0001 12 24.0001C15.259 24.0001 15.668 23.9861 16.948 23.9281C18.802 23.8431 20.646 23.3261 21.986 21.9861C23.333 20.6391 23.843 18.8021 23.928 16.9481C23.986 15.6681 24 15.2591 24 12.0001C24 8.74106 23.986 8.33206 23.928 7.05206C23.843 5.19706 23.326 3.35406 21.986 2.01406C20.643 0.671061 18.797 0.156061 16.948 0.072061C15.668 0.014061 15.259 6.10352e-05 12 6.10352e-05Z" fill="#272A30"/>
<path id="Vector_2" d="M12 5.83806C8.59701 5.83806 5.83801 8.59706 5.83801 12.0001C5.83801 15.4031 8.59701 18.1621 12 18.1621C15.403 18.1621 18.162 15.4031 18.162 12.0001C18.162 8.59706 15.403 5.83806 12 5.83806ZM12 16.0001C9.79101 16.0001 8.00001 14.2091 8.00001 12.0001C8.00001 9.79106 9.79101 8.00006 12 8.00006C14.209 8.00006 16 9.79106 16 12.0001C16 14.2091 14.209 16.0001 12 16.0001Z" fill="#272A30"/>
<path id="Vector_3" d="M18.406 7.03406C19.2013 7.03406 19.846 6.38935 19.846 5.59406C19.846 4.79877 19.2013 4.15406 18.406 4.15406C17.6107 4.15406 16.966 4.79877 16.966 5.59406C16.966 6.38935 17.6107 7.03406 18.406 7.03406Z" fill="#272A30"/>
</g>
</g>
<defs>
<clipPath id="clip0_1_189">
<rect width="24" height="24" fill="white"/>
</clipPath>
</defs>
</svg>
